# xmcd
# Copyright (C) 1995-1998 Ti Kan
#
# Track frame offsets:
#       150
#       17962
#       37362
#       54787
#       71250
#       86412
#       105650
#       121500
#       139250
#       153637
#       167700
#       185535
#       207575
#       251200
#
# Disc length: 3362 seconds
#
# Revision: 0
# Processed by: cddbd v1.4PL0 Copyright (c) Steve Scherf et al.
# Submitted via: CD-Transfer v1.0
#
DISCID=c40d200e
DTITLE=Luv - Chumm Use
DYEAR=2001
DGENRE=
TTITLE0=Dorothee
TTITLE1=Paris
TTITLE2=Wo N'är Sie S'erscht Mou Het Gseh
TTITLE3=Du Chasch Mis Härz Ha
TTITLE4=Chumm Use
TTITLE5=Wohnig
TTITLE6=Vada
TTITLE7=Aber Du
TTITLE8=Wit Vo De Hei
TTITLE9=Venus
TTITLE10=No Immer I Mir
TTITLE11=Palme
TTITLE12=Novämber
TTITLE13=End
EXTD=
EXTT0=
EXTT1=
EXTT2=
EXTT3=
EXTT4=
EXTT5=
EXTT6=
EXTT7=
EXTT8=
EXTT9=
EXTT10=
EXTT11=
EXTT12=
EXTT13=
PLAYORDER=
